<svg width="20" height="20" viewBox="0 0 20 20" fill="none" xmlns="http://www.w3.org/2000/svg">
<path fill-rule="evenodd" clip-rule="evenodd" d="M4.49157 8.43752L9.22666 3.70243L9.81592 4.29169L5.08083 9.02678L4.49157 8.43752Z" fill="#606674"/>
<path fill-rule="evenodd" clip-rule="evenodd" d="M6.06298 10.0088L10.7981 5.27372L11.3873 5.86298L6.65224 10.5981L6.06298 10.0088Z" fill="#606674"/>
<path fill-rule="evenodd" clip-rule="evenodd" d="M9.40197 13.348L14.1371 8.61289L14.7263 9.20215L9.99123 13.9372L9.40197 13.348Z" fill="#606674"/>
<path fill-rule="evenodd" clip-rule="evenodd" d="M10.9735 14.9192L15.7086 10.1841L16.2979 10.7734L11.5628 15.5085L10.9735 14.9192Z" fill="#606674"/>
<path fill-rule="evenodd" clip-rule="evenodd" d="M10.9734 14.9193C9.33894 16.5538 6.69486 16.5596 5.06768 14.9325C3.4405 13.3053 3.44638 10.6612 5.08083 9.02676L4.49158 8.4375C2.53024 10.3988 2.52317 13.5717 4.47579 15.5244C6.42842 17.477 9.60131 17.4699 11.5626 15.5086L10.9734 14.9193Z" fill="#606674"/>
<path fill-rule="evenodd" clip-rule="evenodd" d="M14.1372 8.61285L14.7265 9.2021C16.252 7.67662 16.2575 5.20881 14.7388 3.69011C13.22 2.1714 10.7522 2.1769 9.22676 3.70238L9.81601 4.29164C11.0146 3.09304 12.9536 3.08872 14.1469 4.28199C15.3401 5.47526 15.3358 7.41425 14.1372 8.61285Z" fill="#606674"/>
<path fill-rule="evenodd" clip-rule="evenodd" d="M6.06299 10.009C4.97336 11.0987 4.96943 12.8614 6.05422 13.9462C7.13901 15.031 8.90173 15.027 9.99136 13.9374L9.4021 13.3481C8.63936 14.1109 7.40546 14.1136 6.64611 13.3543C5.88675 12.5949 5.8895 11.361 6.65224 10.5983L6.06299 10.009Z" fill="#606674"/>
</svg>
