<svg width="22" height="21" viewBox="0 0 22 21" fill="none" xmlns="http://www.w3.org/2000/svg">
<path fill-rule="evenodd" clip-rule="evenodd" d="M12.3076 11.429C10.7873 12.8629 8.32252 12.8629 6.80227 11.429C5.28201 9.99521 5.28201 7.67052 6.80227 6.23669C8.32252 4.80286 10.7873 4.80286 12.3076 6.23669C13.8279 7.67051 13.8279 9.99521 12.3076 11.429ZM12.7751 12.8138C10.694 14.3152 7.70472 14.1683 5.8013 12.3731C3.72822 10.4179 3.72822 7.24784 5.8013 5.29262C7.87437 3.3374 11.2355 3.3374 13.3086 5.29262C15.2119 7.08776 15.3677 9.90692 13.7761 11.8697L17.5628 15.4412L16.5618 16.3853L12.7751 12.8138Z" fill="#606674"/>
</svg>
